<svg width="63" height="62" fill="none" xmlns="http://www.w3.org/2000/svg"><rect x=".074" width="62" height="62" rx="4" fill="#56CCF2" fill-opacity=".13"/><path d="M27.716 32.466a.554.554 0 00-.553-.554h-1.934a.554.554 0 00-.553.554v1.933c0 .306.248.553.553.553h1.934a.554.554 0 00.553-.553v-1.933zm4.832 0a.554.554 0 00-.554-.554h-1.933a.554.554 0 00-.554.554v1.933c0 .306.248.553.554.553h1.933a.554.554 0 00.554-.553v-1.933zm4.832 0a.554.554 0 00-.554-.554h-1.933a.554.554 0 00-.554.554v1.933c0 .306.248.553.554.553h1.933a.554.554 0 00.554-.553v-1.933zm-9.664 4.831a.554.554 0 00-.553-.553h-1.934a.554.554 0 00-.553.553v1.933c0 .306.248.554.553.554h1.934a.554.554 0 00.553-.554v-1.932zm4.832 0a.554.554 0 00-.554-.553h-1.933a.554.554 0 00-.554.553v1.933c0 .306.248.554.554.554h1.933a.554.554 0 00.554-.554v-1.932zm4.832 0a.554.554 0 00-.554-.553h-1.933a.554.554 0 00-.554.553v1.933c0 .306.248.554.554.554h1.933a.554.554 0 00.554-.554v-1.932z" fill="#2D9CDB"/><path fill-rule="evenodd" clip-rule="evenodd" d="M40.836 24.67v-2.952c1.166.035 2.125 1 2.125 2.186v17.303a2.2 2.2 0 01-2.188 2.2H21.282a2.199 2.199 0 01-2.188-2.2V23.904c0-1.186.958-2.151 2.125-2.186v2.952a2.411 2.411 0 002.416 2.41h1.525c1.335 0 2.431-1.075 2.431-2.41v-2.963h6.873v2.963c0 1.335 1.096 2.41 2.43 2.41h1.526a2.411 2.411 0 002.416-2.41zm-1.654 16.405a.946.946 0 00.946-.946v-8.937a.946.946 0 00-.946-.946H22.831a.946.946 0 00-.946.946v8.937c0 .523.423.946.946.946h16.351z" fill="#2D9CDB"/><path d="M23.63 25.497h1.508c.458 0 .83-.37.83-.828v-4.84a.829.829 0 00-.83-.829H23.63a.829.829 0 00-.829.829v4.84c0 .458.371.828.83.828zm13.246 0h1.508c.457 0 .828-.37.828-.828v-4.84a.829.829 0 00-.828-.829h-1.508a.829.829 0 00-.83.829v4.84c0 .458.372.828.83.828z" fill="#2D9CDB"/></svg>