<svg width="635" height="460" fill="none" xmlns="http://www.w3.org/2000/svg"><g clip-path="url(#clip0)"><path d="M172.31 205.097h-16.648v-1.399h15.109V42.53h213.212v1.54H172.31v161.027z" fill="#4AAFFF"/><path d="M599.012 70.371v193.485c0 1.259-1.119 2.379-2.378 2.379H183.642c-1.259 0-2.379-1.12-2.379-2.379V70.371c0-1.26 1.12-2.378 2.379-2.378h412.992c1.399 0 2.378 1.119 2.378 2.378z" fill="#E0E0E0"/><path d="M594.116 70.371H186.161c-1.26 0-2.379 1.12-2.379 2.378v188.729c0 1.259 1.119 2.378 2.379 2.378h408.095c1.259 0 2.379-1.119 2.379-2.378V72.749c-.14-1.399-1.12-2.378-2.519-2.378z" fill="#fff"/><path d="M175.808 226.083s-.14-2.099.14-3.078c.419-1.679-.14-4.477 1.958-5.876 2.099-1.399 8.394 4.337 8.954 5.876.56 1.539-1.819 4.337-6.715 6.575-5.037 2.239-4.337-3.497-4.337-3.497z" fill="#EEA886"/><path d="M177.207 217.688s2.098-3.217 4.896-6.435c2.378-2.798 5.876-6.016 6.576-5.456 1.119.979-1.959 3.217-4.198 6.155-2.098 2.798-1.119 2.519-1.119 2.519s-.28 0 2.519-2.519c3.077-2.798 6.435-5.596 6.995-5.036.699.559.839.699-.14 1.959.699-.56.979-.42 1.259-.14 1.399 1.399-2.518 6.155-3.917 7.974 1.119-1.399 2.238-2.378 2.518-.979.28 1.539-5.316 7.974-7.135 10.492-2.239 2.798-8.254-8.534-8.254-8.534z" fill="#EEA886"/><path d="M104.317 445.03s5.876 3.498 8.674 4.757c2.658 1.259 13.151 1.678 14.13 2.658.98.979.7 4.057-1.119 4.477-1.679.279-14.41 1.399-18.607.419-4.197-.979-12.171.7-13.85.14-1.819-.559-.56-10.073 0-12.171.56-2.099 10.772-.28 10.772-.28z" fill="#181929"/><path d="M104.737 441.113l-.559 3.917s-7.975 1.539-10.353.28l.56-4.057 10.352-.14z" fill="#22243B"/><path d="M136.495 309.185c-.14 2.658-.56 8.534-1.119 14.549-.14 1.399-.28 2.659-.42 4.058-.839 8.254-1.539 15.809-1.539 15.809-.979 6.575-3.078 17.907-5.316 26.441-.7 2.518-1.399 4.757-2.099 6.576-.699 1.818-1.399 3.217-1.958 4.057-4.897 6.295-16.229 61.837-16.229 61.837l-15.39-.14s3.358-37.634 6.716-47.287c3.777-10.633 10.353-25.043 8.674-35.256-.979-6.435-2.378-27.001-2.378-27.001s-1.259-23.084 4.756-40.012c1.679-4.197 26.302 16.369 26.302 16.369z" fill="#292C47"/><path d="M147.408 446.429s5.875 3.637 8.534 4.897c2.658 1.399 13.15 1.818 14.13 2.798.979.979.559 4.057-1.119 4.337-1.679.279-14.41 1.259-18.608.279-4.197-.979-12.171.56-13.85-.14-1.679-.559-.559-10.072.14-12.171.7-1.959 10.773 0 10.773 0z" fill="#181929"/><path d="M147.967 442.652l-.56 3.917s-7.974 1.399-10.353.14l.7-4.057h10.213z" fill="#22243B"/><path d="M129.64 387.39c-.42-12.311-1.539-20.426-4.617-27.561-2.658-6.016-4.896-24.762-4.896-24.762s-7.275-21.965-5.736-39.873c.419-4.477 28.26 6.716 28.26 6.716.559 2.658 2.518 10.772 3.078 16.928 3.777 34.696 2.378 57.36 2.378 57.36-2.098 7.695 3.358 67.993 3.358 67.993h-15.669s-4.058-21.545-4.477-34.836c-.28.14-1.819-19.866-1.679-21.965z" fill="#292C47"/><path d="M129.22 228.181s7.275 12.032 9.374 18.607c2.098 6.715.419 26.162.839 30.079 1.119 12.172 2.938 25.462 2.938 25.462l-24.483 15.669s-4.337-10.212-8.254-23.083c-3.778-12.732-4.197-24.343-4.057-32.038.139-24.063 13.15-37.774 13.15-37.774l10.493 3.078z" fill="#CFBEB6"/><path d="M138.314 196.143s5.037 5.317 3.638 6.856c-1.12 1.119 3.497 6.575 4.057 7.414.699.84-2.099 2.379-2.519 3.218-.419.84-.139 9.234-2.518 10.073-2.378.84-13.99 0-17.767-2.378-3.778-2.239-9.794-15.389-9.374-21.685.42-6.296 15.669-12.871 24.483-3.498z" fill="#EEA886"/><path d="M133.557 221.746s-.14.699-.14 1.818c-.14.98-.28 2.519-.28 3.498-.14 1.819-.419 5.876 0 7.834.56 3.078-12.871-10.073-12.871-10.073s1.12-10.212.56-21.684c-.7-11.473 12.731 18.607 12.731 18.607z" fill="#EEA886"/><path d="M139.293 197.263s2.379-5.597-4.896-9.514c-8.674-4.617-17.768 6.855-19.027 7.555-1.259.699-6.715 6.855-1.399 15.109 6.855 10.353 6.435 10.073 6.435 10.073s.7-7.694.7-9.093c-.14-2.658 6.995-3.078 6.995-3.078s-2.938-3.917.28-5.596c3.358-1.679 7.135-5.876 10.912-5.456z" fill="#3A3F47"/><path d="M124.463 207.336c-.559-.7-2.378-3.918-4.896-1.12-2.378 2.798 4.057 8.115 4.617 7.975.559 0 4.616-.7.279-6.855z" fill="#EEA886"/><path d="M143.77 307.506s-1.259-5.736-1.399-6.576l-35.815 6.016.419 4.617c-.14 0 25.603-1.679 36.795-4.057z" fill="#23263D"/><path d="M103.338 282.323s5.456 23.784-3.078 51.484c-1.119 3.358 23.784-.559 23.784-.559l-20.706-50.925z" fill="#323657"/><path d="M134.956 331.429s-17.628 3.917-22.664 2.099c0 0-7.275-26.302-9.793-53.023-.14-2.099-.42-4.058-.56-6.156-1.399-21.685 4.057-43.79 16.649-49.246.419.28 18.047 15.809 17.767 30.219v8.254c.14 5.457.42 10.913.98 16.089 0 .56.139 1.119.139 1.679.14.839.14 1.819.28 2.658.14 1.119.28 2.378.42 3.498 2.938 23.923-3.218 43.929-3.218 43.929z" fill="#323657"/><path d="M134.117 238.674s3.357 13.151 4.616 29.799c1.12 13.85 2.519 23.643 2.519 23.643l2.098 6.856.84-6.576s-.84-17.907-1.819-25.182c-1.119-7.415-1.539-16.649-7.415-28.82l-.839.28z" fill="#D44040"/><path d="M133.837 238.674s.42.419.979.419c.56.14 1.399-.839-1.539-4.616l.56 4.197z" fill="#D44040"/><path d="M120.266 223.284s8.255 7.695 13.151 9.514l.98 7.415-15.669-14.97 1.538-1.959z" fill="#EDDAD3"/><path d="M125.862 253.224c-3.217-1.12-16.788-7.695-13.15-15.39 3.637-7.694 12.871-3.637 19.866-.419 7.275 3.217 24.483 13.29 25.882 12.311 1.399-.979 7.275-9.513 8.394-11.332 1.119-1.959 7.555-13.99 8.114-14.97.56-.839 10.073 6.995 10.073 6.995s-16.928 30.08-21.545 34.836c-4.617 4.897-37.634-12.031-37.634-12.031z" fill="#323657"/><path d="M128.101 370.042c-.7 2.518-1.399 4.757-2.099 6.576l-5.316-32.038c1.399 3.078 7.415 25.462 7.415 25.462z" fill="#181929"/><path d="M136.495 263.576l-15.529-12.731c4.057 2.239 14.27 6.855 15.529 7.415-.14 1.819 0 3.638 0 5.316z" fill="#1C1E30"/><path d="M133.278 223.704c-.28 2.378-.28 2.518-.28 2.518-5.177-.279-9.094-4.476-9.374-4.756 2.239 1.818 9.654 2.238 9.654 2.238z" fill="#A77860"/><path d="M397.833 124.373h-.7V243.85h.7V124.373zm-28.12 0h-.7V243.85h.7V124.373zm-27.981 0h-.7V243.85h.7V124.373zm-28.12 0h-.699V243.85h.699V124.373zm-28.12 0h-.7V243.85h.7V124.373zm-27.981 0h-.699V243.85h.699V124.373zm-28.12 0h-.7V243.85h.7V124.373zm-27.981 0h-.7V243.85h.7V124.373z" fill="#E0E0E0"/><path d="M209.244 217.968h-7.974v-2.098h7.135l12.031-12.172 8.814 8.814 21.126-20.985 6.435 6.435 21.265-21.265 12.871 12.731h14.55l22.524-22.524h19.307l14.41-14.27h17.488l17.488-17.488 1.539 1.539-18.048 18.047h-17.628l-14.27 14.41h-19.446l-22.524 22.385h-16.369l-11.892-11.892-21.265 21.405-6.435-6.436-21.126 20.986-8.814-8.814-11.192 11.192z" fill="#FFAA8F"/><path d="M201.97 244.13l-1.399-1.679 23.223-19.866h14.27l32.178-27.421 20.006 17.208h14.83l7.554 6.296 23.224-19.727h11.892l48.966-41.83 1.399 1.678-49.526 42.251h-11.891l-24.064 20.566-8.254-7.135h-14.829l-19.307-16.369-31.478 26.721h-14.13L201.97 244.13z" fill="#42ABFF"/><path d="M382.723 137.804h-22.244c-.7 0-1.259-.56-1.259-1.259v-1.679c0-.699.559-1.259 1.259-1.259h22.244c.7 0 1.259.56 1.259 1.259v1.679c0 .699-.559 1.259-1.259 1.259zm-32.597 11.612h-22.244c-.7 0-1.259-.56-1.259-1.259v-1.679c0-.7.559-1.259 1.259-1.259h22.244c.7 0 1.259.559 1.259 1.259v1.679c.14.699-.559 1.259-1.259 1.259zm-39.592-7.275h-22.245c-.699 0-1.259-.56-1.259-1.259v-1.679c0-.699.56-1.259 1.259-1.259h22.245c.699 0 1.259.56 1.259 1.259v1.679c0 .699-.56 1.259-1.259 1.259zm-33.997 20.146h-22.244c-.7 0-1.259-.56-1.259-1.259v-1.679c0-.7.559-1.259 1.259-1.259h22.244c.7 0 1.259.559 1.259 1.259v1.679c0 .699-.559 1.259-1.259 1.259zm-42.67 16.369h-22.244c-.7 0-1.259-.56-1.259-1.26v-1.678c0-.7.559-1.26 1.259-1.26h22.244c.7 0 1.259.56 1.259 1.26v1.678c0 .56-.559 1.26-1.259 1.26z" fill="#78C2FF"/><path d="M414.481 212.232h-7.694v31.059h7.694v-31.059zm13.572-10.073h-7.695v40.992h7.695v-40.992zm13.429-10.912h-7.694v51.904h7.694v-51.904zm14.131 5.736h-7.695v46.307h7.695v-46.307zm14.689-8.814h-7.695v55.121h7.695v-55.121zm14.271 9.653h-7.695v45.329h7.695v-45.329zm13.57 7.415h-7.695v38.054h7.695v-38.054zm13.431-4.617h-7.695v42.67h7.695v-42.67zm14.27-22.804h-7.695v65.335h7.695v-65.335zm14.549 10.353h-7.694v55.121h7.694v-55.121zm13.851 8.814h-7.695v46.307h7.695v-46.307zm14.27-13.291h-7.694v59.598h7.694v-59.598zm14.55-16.508h-7.695v76.106h7.695v-76.106z" fill="#E0E0E0"/><path d="M414.481 223.564h-7.694v19.727h7.694v-19.727zm13.572-6.295h-7.695v26.021h7.695v-26.021zm13.429-6.996h-7.694v33.017h7.694v-33.017zm14.131 3.638h-7.695v29.379h7.695v-29.379zm14.689-5.596h-7.695v34.975h7.695v-34.975zm14.271 6.156h-7.695v28.819h7.695v-28.819zm13.57 4.616h-7.695v24.204h7.695v-24.204zm13.431-2.798h-7.695v27.001h7.695v-27.001zm14.27-14.55h-7.695v41.412h7.695v-41.412zm14.549 6.576h-7.694v34.975h7.694v-34.975zm13.851 5.596h-7.695v29.379h7.695v-29.379zm14.27-8.394h-7.694v37.774h7.694v-37.774zm14.55-10.493h-7.695v48.266h7.695v-48.266z" fill="#78C2FF"/><path d="M612.304 243.57s1.959 26.862-3.358 30.079c-3.357 1.959-16.368 8.814-16.089 10.073.42 1.259 7.415 11.332 7.415 11.332s25.183-16.648 26.022-21.824c.84-5.177-1.259-39.453-4.757-40.992-2.658-1.119-3.917-.14-7.274 2.239-4.337 3.497-1.959 9.093-1.959 9.093z" fill="#90919E"/><path d="M615.241 439.574s.84 5.456.84 6.295c.14.84 8.674-.419 8.674-.419l.699-6.436c.14-.14-9.094-.28-10.213.56z" fill="#424773"/><path d="M616.081 445.17s-2.798 3.218-5.317 4.757c-2.658 1.399-6.855 1.958-8.394 3.497-1.119 1.119-4.057 5.736 6.855 5.596 11.053-.14 16.229.7 17.488-1.119 1.12-1.819-1.679-13.011-1.679-13.011s-2.658.839-8.953.28z" fill="#292C47"/><path d="M572.151 439.574s.84 5.456.84 6.295c.14.84 8.674-.419 8.674-.419l.699-6.436c0-.14-9.233-.28-10.213.56z" fill="#424773"/><path d="M572.851 445.17s-2.798 3.218-5.316 4.757c-2.658 1.399-12.312 2.658-13.99 4.057-1.12 1.119-2.938 5.316 12.451 5.036 11.052-.28 16.229.7 17.488-1.119 1.119-1.819-1.679-13.011-1.679-13.011s-2.518.839-8.954.28z" fill="#292C47"/><path d="M612.163 299.531s8.115 12.871 7.555 24.483c-.559 11.612.7 24.063 1.959 36.235 1.399 13.571 5.036 41.831 5.316 49.106.14 7.275-.28 34.556-.28 34.556l-14.13-.14s-5.036-55.122-7.415-60.858c-2.378-5.736-12.311-47.147-12.731-51.764-.42-4.477 19.726-31.618 19.726-31.618z" fill="#313454"/><path d="M569.494 301.35s-3.218 31.618-4.058 38.753c-.839 7.135-.279 38.054-.699 42.53-.42 4.477 2.658 51.624 3.497 60.578l15.53-.14s1.119-38.193 1.119-56.66 4.757-40.152 10.213-52.324c5.456-12.171 17.907-12.451 21.265-35.255-.14.14-42.251-4.757-46.867 2.518z" fill="#313454"/><path d="M603.63 190.967s-9.654-6.436-16.509.42c-6.855 6.855-10.073 23.224-5.316 26.441 4.896 3.218 13.151 4.057 17.068-.28 3.917-4.337 8.114-11.052 9.094-16.088 1.259-4.897-1.819-8.534-4.337-10.493z" fill="#EEA886"/><path d="M585.163 218.947s.14 6.856-.56 8.255c-.699 1.399 14.13 1.539 14.13 1.539s1.259-7.835 3.498-14.55c2.238-6.716-17.068 4.756-17.068 4.756z" fill="#EEA886"/><path d="M601.811 214.051s-1.399 1.399-5.316-.14c-3.917-1.539-7.555-8.254-9.234-9.234-1.539-.979-1.399-1.958-1.399-1.958l-1.399 1.259-1.818-.28s2.798-4.477.839-6.995 6.296-15.11 18.327-7.415c0 0 9.374 5.176 7.695 10.773-1.819 5.456-4.757 11.611-7.695 13.99z" fill="#754836"/><path d="M583.764 226.922s0-2.798 1.259-3.078c1.259-.28 13.85-1.539 15.389-.839v3.217s-2.938 1.959-16.648.7z" fill="#E2D2CA"/><path d="M586.701 200.62c.419-.839 3.497-3.078 3.777.14.28 3.218-3.078 6.576-4.197 5.876-1.259-.699-.699-3.777.42-6.016z" fill="#EEA886"/><path d="M606.427 192.646s13.851 3.637-4.057 20.845l4.057-20.845z" fill="#754836"/><path d="M440.503 165.085h-32.737a.956.956 0 01-.979-.979v-5.037c0-.559.419-.979.979-.979h32.737c.56 0 .979.42.979.979v5.037a.956.956 0 01-.979.979z" fill="#FF8761"/><path d="M463.167 165.085h-13.011a.956.956 0 01-.979-.979v-5.037c0-.559.419-.979.979-.979h13.011c.56 0 .979.42.979.979v5.037a.956.956 0 01-.979.979zm-21.545-57.92h-31.058a3.761 3.761 0 00-3.777 3.778v28.96a3.761 3.761 0 003.777 3.777h31.058a3.762 3.762 0 003.778-3.777v-28.96a3.762 3.762 0 00-3.778-3.778zm107.306 6.716h-98.072v4.337h98.072v-4.337zm22.104 9.513H450.856v4.337h120.176v-4.337zm-60.997 9.094h-59.179v4.337h59.179v-4.337z" fill="#E0E0E0"/><path d="M399.092 113.881H200.99v2.098h198.102v-2.098z" fill="#33A4FF"/><path d="M399.092 106.046H200.99v2.099h198.102v-2.099z" fill="#FF8761"/><path d="M627.693 219.787h-11.472v-1.399h10.073V52.184h-30.779V35.955H371.531v-1.539h225.383v16.229h30.779v169.142z" fill="#4AAFFF"/><path d="M634.548 227.482h-7.974v-1.4h6.435v-37.913h1.539v39.313z" fill="#4AAFFF"/><path opacity=".79" d="M583.064 20.706H201.27v77.366h381.794V20.706z" fill="#fff"/><path d="M265.625 93.455l17.488-17.628 13.291 13.29 20.565-20.565h9.514l14.13 6.016 16.928-16.788 23.224 23.224 14.41-14.55h3.917l7.695-7.695 20.705 20.706 9.654-9.654 9.933 9.794 17.068-16.929 12.871 12.871h9.513l20.146-20.006 20.985 20.986 35.676-20.986v37.914H265.625z" fill="#78C2FF"/><path d="M315.01 93.455l14.27-14.41 8.534 8.394 17.068-17.068L371.111 86.6h12.871l11.472-11.472h15.11l16.508 16.368 10.633-10.772 6.016 6.016 19.446-19.587 14.55 14.55h12.731l14.27-14.41 6.296 6.436 5.176-5.177 13.431 13.291h13.71l20.146-20.146v31.758H315.01z" fill="#4DAFFF"/><path d="M268.283 51.344c-4.337-12.171-15.948-19.726-28.26-19.306-2.938.14-6.016.7-8.954 1.679-8.953 3.217-15.389 10.352-18.047 18.747-1.819 5.875-1.819 12.31.42 18.467.279.56.419 1.259.699 1.818 1.119 2.659 2.658 5.177 4.477 7.275 7.555 8.954 20.286 12.731 32.038 8.534 15.109-5.456 22.944-22.104 17.627-37.214zm-20.145 30.36c-8.814 3.077-18.328.279-23.924-6.436-1.399-1.54-2.518-3.358-3.357-5.457-.14-.42-.42-.839-.56-1.399a21.395 21.395 0 01-.28-13.85c1.959-6.296 6.715-11.612 13.431-13.99 2.238-.84 4.477-1.26 6.715-1.26 9.234-.28 17.908 5.317 21.125 14.41 4.197 11.333-1.818 23.924-13.15 27.981z" fill="#4AAFFF"/><path d="M220.017 54.562l-6.995-2.238c2.658-8.395 9.094-15.53 18.048-18.747 2.938-1.12 6.015-1.54 8.953-1.68l.28 7.276c-2.238 0-4.477.42-6.715 1.259-6.855 2.518-11.612 7.834-13.571 14.13z" fill="#1A598C"/><path d="M220.857 69.811l-6.716 2.938c-.28-.56-.559-1.259-.699-1.818-2.239-6.156-2.239-12.592-.42-18.467l6.995 2.238a21.395 21.395 0 00.28 13.85c.14.42.28.84.56 1.26z" fill="#2273B5"/><path d="M218.618 79.884c-1.819-2.098-3.358-4.616-4.477-7.275l6.715-2.938a22.086 22.086 0 003.358 5.457l-5.596 4.756z" fill="#3788CC"/><path d="M482.054 265.815l14.13.419c-1.119-.699-3.077-2.098-2.658-2.658.7-.839 4.617 1.12 6.156 1.399 1.539.14 3.917.14 5.876.84l4.337 2.098-4.197 3.638s-7.415.839-9.514.839c-3.497.14-14.13-4.477-14.27-5.036-.419-1.259.14-1.539.14-1.539z" fill="#EEA886"/><path d="M565.296 230.839c8.954-1.539 18.327-3.777 18.327-3.777l16.649-.7s15.249 3.358 21.405 6.156c.56.28.56 13.71 2.099 17.208l-5.037 10.493s-2.938 20.845-3.498 30.219c-.279 4.197 6.016 40.012 6.016 40.012s-6.715 1.958-18.047 3.217c-11.332 1.26-39.872-.419-40.012-1.818-.14-1.399 5.456-50.085 5.736-52.604.419-3.917-1.119-21.824-1.119-21.824-2.099 2.938-14.55 13.71-20.566 17.068-4.337 2.378-14.83.979-18.048.699-6.715-.699-25.322-1.958-25.742-2.658-.279-.42 1.12-7.135 1.819-7.415.7-.28 24.763-1.399 30.779-1.119 2.378.14 10.352-8.814 10.352-8.814s13.991-22.104 18.887-24.343z" fill="#90919E"/></g><defs><clipPath id="clip0"><path fill="#fff" d="M-43 0h677.548v459.3H-43z"/></clipPath></defs></svg>