<svg width="63" height="62" viewBox="0 0 63 62" fill="none" xmlns="http://www.w3.org/2000/svg">
<rect x="0.0737305" width="62" height="62" rx="4" fill="#56CCF2" fill-opacity="0.13"/>
<path d="M27.7165 32.4656C27.7165 32.1598 27.4685 31.9121 27.1625 31.9121H25.2292C24.9236 31.9121 24.6755 32.1598 24.6755 32.4656V34.3986C24.6755 34.7047 24.9236 34.9525 25.2292 34.9525H27.1625C27.4685 34.9525 27.7165 34.7047 27.7165 34.3986V32.4656Z" fill="#2D9CDB"/>
<path d="M32.548 32.4656C32.548 32.1598 32.2999 31.9121 31.9945 31.9121H30.061C29.7554 31.9121 29.5073 32.1598 29.5073 32.4656V34.3986C29.5073 34.7047 29.7554 34.9525 30.061 34.9525H31.9945C32.2999 34.9525 32.548 34.7047 32.548 34.3986V32.4656Z" fill="#2D9CDB"/>
<path d="M37.3796 32.4656C37.3796 32.1598 37.1315 31.9121 36.8259 31.9121H34.8926C34.5866 31.9121 34.3386 32.1598 34.3386 32.4656V34.3986C34.3386 34.7047 34.5866 34.9525 34.8926 34.9525H36.8259C37.1315 34.9525 37.3796 34.7047 37.3796 34.3986V32.4656Z" fill="#2D9CDB"/>
<path d="M27.7165 37.2975C27.7165 36.9912 27.4685 36.7437 27.1625 36.7437H25.2292C24.9236 36.7437 24.6755 36.9912 24.6755 37.2975V39.2301C24.6755 39.5361 24.9236 39.7838 25.2292 39.7838H27.1625C27.4685 39.7838 27.7165 39.536 27.7165 39.2301V37.2975Z" fill="#2D9CDB"/>
<path d="M32.548 37.2975C32.548 36.9912 32.2999 36.7437 31.9945 36.7437H30.061C29.7554 36.7437 29.5073 36.9912 29.5073 37.2975V39.2301C29.5073 39.5361 29.7554 39.7838 30.061 39.7838H31.9945C32.2999 39.7838 32.548 39.536 32.548 39.2301V37.2975Z" fill="#2D9CDB"/>
<path d="M37.3796 37.2975C37.3796 36.9912 37.1315 36.7437 36.8261 36.7437H34.8926C34.5866 36.7437 34.3386 36.9912 34.3386 37.2975V39.2301C34.3386 39.5361 34.5866 39.7838 34.8926 39.7838H36.8261C37.1315 39.7838 37.3796 39.536 37.3796 39.2301V37.2975Z" fill="#2D9CDB"/>
<path fill-rule="evenodd" clip-rule="evenodd" d="M40.8364 24.6702V21.7177C42.0025 21.7528 42.9607 22.7178 42.9607 23.9038V41.2069C42.9607 42.4132 41.9795 43.4076 40.773 43.4076H21.282C20.0736 43.4076 19.0942 42.4152 19.0942 41.2069V23.9038C19.0942 22.7178 20.0525 21.7528 21.2186 21.7177V24.6702C21.2186 26.0047 22.3012 27.0801 23.6354 27.0801H25.1604C26.4946 27.0801 27.5915 26.0047 27.5915 24.6702V21.7071H34.4635V24.6702C34.4635 26.0047 35.5604 27.0801 36.8948 27.0801H38.4195C39.7538 27.0801 40.8364 26.0047 40.8364 24.6702ZM39.1824 41.0752C39.7048 41.0752 40.1282 40.6516 40.1282 40.1294L40.1282 31.1917C40.1282 30.6693 39.7048 30.2457 39.1824 30.2457H22.8309C22.3084 30.2457 21.8851 30.6693 21.8851 31.1917V40.1294C21.8851 40.6516 22.3085 41.0752 22.8309 41.0752H39.1824Z" fill="#2D9CDB"/>
<path d="M23.6302 25.4973H25.1383C25.596 25.4973 25.9672 25.1266 25.9672 24.6689V19.8286C25.9672 19.3708 25.596 19 25.1383 19H23.6302C23.1724 19 22.8013 19.3708 22.8013 19.8286V24.6689C22.8013 25.1266 23.1724 25.4973 23.6302 25.4973Z" fill="#2D9CDB"/>
<path d="M36.8755 25.4973H38.3836C38.841 25.4973 39.2122 25.1266 39.2122 24.6689V19.8286C39.2122 19.3708 38.8411 19 38.3836 19H36.8755C36.4178 19 36.0466 19.3708 36.0466 19.8286V24.6689C36.0466 25.1266 36.4178 25.4973 36.8755 25.4973Z" fill="#2D9CDB"/>
</svg>
