<?xml version="1.0" encoding="UTF-8"?> <!-- Generator: Adobe Illustrator 19.0.0, SVG Export Plug-In . SVG Version: 6.00 Build 0) --> <svg xmlns="http://www.w3.org/2000/svg" xmlns:xlink="http://www.w3.org/1999/xlink" id="Capa_1" x="0px" y="0px" viewBox="0 0 512 512" style="enable-background:new 0 0 512 512;" xml:space="preserve" width="512px" height="512px"> <g> <g> <path d="M503.467,55.467H8.533C3.823,55.467,0,59.29,0,64v366.933c0,4.719,3.823,8.533,8.533,8.533H435.2 c4.719,0,8.533-3.814,8.533-8.533V371.2h59.733c4.719,0,8.533-3.814,8.533-8.533V64C512,59.29,508.186,55.467,503.467,55.467z M494.933,354.133H435.2c-4.719,0-8.533,3.814-8.533,8.533V422.4h-409.6V72.533h477.867V354.133z" fill="#0054a6"></path> </g> </g> <g> <g> <rect x="8.533" y="132.267" width="494.933" height="17.067" fill="#0054a6"></rect> </g> </g> <g> <g> <rect x="247.467" y="29.867" width="17.067" height="68.267" fill="#0054a6"></rect> </g> </g> <g> <g> <rect x="421.04" y="388.282" transform="matrix(0.7071 -0.7071 0.7071 0.7071 -143.1323 448.0783)" width="96.545" height="17.066" fill="#0054a6"></rect> </g> </g> <g> <g> <path d="M494.933,362.667v102.4H17.067v-34.133H0V473.6c0,4.719,3.823,8.533,8.533,8.533h494.933c4.719,0,8.533-3.814,8.533-8.533 V362.667H494.933z" fill="#0054a6"></path> </g> </g> <g> <g> <rect x="162.133" y="29.867" width="17.067" height="68.267" fill="#0054a6"></rect> </g> </g> <g> <g> <rect x="76.8" y="29.867" width="17.067" height="68.267" fill="#0054a6"></rect> </g> </g> <g> <g> <rect x="418.133" y="29.867" width="17.067" height="68.267" fill="#0054a6"></rect> </g> </g> <g> <g> <rect x="332.8" y="29.867" width="17.067" height="68.267" fill="#0054a6"></rect> </g> </g> <g> <g> <path d="M187.733,174.933h-68.267c-4.71,0-8.533,3.823-8.533,8.533v68.267c0,4.71,3.823,8.533,8.533,8.533h68.267 c4.71,0,8.533-3.823,8.533-8.533v-68.267C196.267,178.756,192.444,174.933,187.733,174.933z M179.2,243.2H128V192h51.2V243.2z" fill="#0054a6"></path> </g> </g> <g> <g> <path d="M256,174.933h-68.267c-4.71,0-8.533,3.823-8.533,8.533v68.267c0,4.71,3.823,8.533,8.533,8.533H256 c4.719,0,8.533-3.823,8.533-8.533v-68.267C264.533,178.756,260.719,174.933,256,174.933z M247.467,243.2h-51.2V192h51.2V243.2z" fill="#0054a6"></path> </g> </g> <g> <g> <path d="M324.267,174.933H256c-4.71,0-8.533,3.823-8.533,8.533v68.267c0,4.71,3.823,8.533,8.533,8.533h68.267 c4.719,0,8.533-3.823,8.533-8.533v-68.267C332.8,178.756,328.986,174.933,324.267,174.933z M315.733,243.2h-51.2V192h51.2V243.2z" fill="#0054a6"></path> </g> </g> <g> <g> <path d="M392.533,174.933h-68.267c-4.719,0-8.533,3.823-8.533,8.533v68.267c0,4.71,3.814,8.533,8.533,8.533h68.267 c4.719,0,8.533-3.823,8.533-8.533v-68.267C401.067,178.756,397.252,174.933,392.533,174.933z M384,243.2h-51.2V192H384V243.2z" fill="#0054a6"></path> </g> </g> <g> <g> <path d="M119.467,243.2H51.2c-4.71,0-8.533,3.823-8.533,8.533V320c0,4.719,3.823,8.533,8.533,8.533h68.267 c4.71,0,8.533-3.814,8.533-8.533v-68.267C128,247.023,124.177,243.2,119.467,243.2z M110.933,311.467h-51.2v-51.2h51.2V311.467z" fill="#0054a6"></path> </g> </g> <g> <g> <path d="M187.733,243.2h-68.267c-4.71,0-8.533,3.823-8.533,8.533V320c0,4.719,3.823,8.533,8.533,8.533h68.267 c4.71,0,8.533-3.814,8.533-8.533v-68.267C196.267,247.023,192.444,243.2,187.733,243.2z M179.2,311.467H128v-51.2h51.2V311.467z" fill="#0054a6"></path> </g> </g> <g> <g> <path d="M256,243.2h-68.267c-4.71,0-8.533,3.823-8.533,8.533V320c0,4.719,3.823,8.533,8.533,8.533H256 c4.719,0,8.533-3.814,8.533-8.533v-68.267C264.533,247.023,260.719,243.2,256,243.2z M247.467,311.467h-51.2v-51.2h51.2V311.467z" fill="#0054a6"></path> </g> </g> <g> <g> <path d="M324.267,243.2H256c-4.71,0-8.533,3.823-8.533,8.533V320c0,4.719,3.823,8.533,8.533,8.533h68.267 c4.719,0,8.533-3.814,8.533-8.533v-68.267C332.8,247.023,328.986,243.2,324.267,243.2z M315.733,311.467h-51.2v-51.2h51.2V311.467 z" fill="#0054a6"></path> </g> </g> <g> <g> <path d="M392.533,243.2h-68.267c-4.719,0-8.533,3.823-8.533,8.533V320c0,4.719,3.814,8.533,8.533,8.533h68.267 c4.719,0,8.533-3.814,8.533-8.533v-68.267C401.067,247.023,397.252,243.2,392.533,243.2z M384,311.467h-51.2v-51.2H384V311.467z" fill="#0054a6"></path> </g> </g> <g> <g> <path d="M119.467,311.467H51.2c-4.71,0-8.533,3.814-8.533,8.533v68.267c0,4.719,3.823,8.533,8.533,8.533h68.267 c4.71,0,8.533-3.814,8.533-8.533V320C128,315.281,124.177,311.467,119.467,311.467z M110.933,379.733h-51.2v-51.2h51.2V379.733z" fill="#0054a6"></path> </g> </g> <g> <g> <path d="M187.733,311.467h-68.267c-4.71,0-8.533,3.814-8.533,8.533v68.267c0,4.719,3.823,8.533,8.533,8.533h68.267 c4.71,0,8.533-3.814,8.533-8.533V320C196.267,315.281,192.444,311.467,187.733,311.467z M179.2,379.733H128v-51.2h51.2V379.733z" fill="#0054a6"></path> </g> </g> <g> <g> <path d="M256,311.467h-68.267c-4.71,0-8.533,3.814-8.533,8.533v68.267c0,4.719,3.823,8.533,8.533,8.533H256 c4.719,0,8.533-3.814,8.533-8.533V320C264.533,315.281,260.719,311.467,256,311.467z M247.467,379.733h-51.2v-51.2h51.2V379.733z" fill="#0054a6"></path> </g> </g> <g> <g> <path d="M324.267,311.467H256c-4.71,0-8.533,3.814-8.533,8.533v68.267c0,4.719,3.823,8.533,8.533,8.533h68.267 c4.719,0,8.533-3.814,8.533-8.533V320C332.8,315.281,328.986,311.467,324.267,311.467z M315.733,379.733h-51.2v-51.2h51.2V379.733 z" fill="#0054a6"></path> </g> </g> <g> <g> <path d="M460.8,174.933h-68.267c-4.719,0-8.533,3.823-8.533,8.533v68.267c0,4.71,3.814,8.533,8.533,8.533H460.8 c4.719,0,8.533-3.823,8.533-8.533v-68.267C469.333,178.756,465.519,174.933,460.8,174.933z M452.267,243.2h-51.2V192h51.2V243.2z" fill="#0054a6"></path> </g> </g> <g> <g> <path d="M460.8,243.2h-68.267c-4.719,0-8.533,3.823-8.533,8.533V320c0,4.719,3.814,8.533,8.533,8.533H460.8 c4.719,0,8.533-3.814,8.533-8.533v-68.267C469.333,247.023,465.519,243.2,460.8,243.2z M452.267,311.467h-51.2v-51.2h51.2V311.467 z" fill="#0054a6"></path> </g> </g> <g> <g> <path d="M392.533,311.467h-68.267c-4.719,0-8.533,3.814-8.533,8.533v68.267c0,4.719,3.814,8.533,8.533,8.533h68.267 c4.719,0,8.533-3.814,8.533-8.533V320C401.067,315.281,397.252,311.467,392.533,311.467z M384,379.733h-51.2v-51.2H384V379.733z" fill="#0054a6"></path> </g> </g> <g> </g> <g> </g> <g> </g> <g> </g> <g> </g> <g> </g> <g> </g> <g> </g> <g> </g> <g> </g> <g> </g> <g> </g> <g> </g> <g> </g> <g> </g> </svg> 