<?xml version="1.0" encoding="UTF-8"?> <svg xmlns="http://www.w3.org/2000/svg" id="Layer_1" data-name="Layer 1" viewBox="0 0 65.21 64.23"> <defs> <style>.cls-1{fill:none;stroke:#3156a1;stroke-miterlimit:10;stroke-width:2px;}</style> </defs> <title>cambio</title> <path class="cls-1" d="M38.57,40.18a2.77,2.77,0,0,0,2.77,2.77H44.1a2.77,2.77,0,0,0,2.77-2.77V38.8A3,3,0,0,0,45,36l-4.52-1.51a2.79,2.79,0,0,1-1.89-2.65V30.5a2.77,2.77,0,0,1,2.77-2.77H44.1a2.77,2.77,0,0,1,2.77,2.77" transform="translate(-0.45 -0.7)"></path> <line class="cls-1" x1="42.27" y1="27.03" x2="42.27" y2="22.87"></line> <line class="cls-1" x1="42.27" y1="42.25" x2="42.27" y2="46.4"></line> <path class="cls-1" d="M35.8,42.95H31.65a5.54,5.54,0,0,1-5.54-5.54V33.26a5.54,5.54,0,0,1,5.54-5.54H35.8" transform="translate(-0.45 -0.7)"></path> <line class="cls-1" x1="22.89" y1="32.56" x2="31.2" y2="32.56"></line> <line class="cls-1" x1="22.89" y1="36.71" x2="31.2" y2="36.71"></line> <path class="cls-1" d="M24.85,53.38a15.17,15.17,0,0,1-8.3-10.82l5.48-.4L10.78,28.54,2.24,43.6l5-.36A20.26,20.26,0,0,0,17.84,56.15a20,20,0,0,0,20.73-1.94M26.33,15.8a15.17,15.17,0,0,1,13.62-.64l-2.8,4.72,17.61-1.46-7.5-15.6L44.69,7.15A20.26,20.26,0,0,0,28.06,8.47,20,20,0,0,0,17.82,26.6M59.4,39.08a15.17,15.17,0,0,1-6.83,11.8L50.11,46l-8.3,15.6L59,63.71l-2.26-4.5a20.25,20.25,0,0,0,7.89-14.7,20,20,0,0,0-9.71-18.42" transform="translate(-0.45 -0.7)"></path> </svg> 