<?xml version="1.0" encoding="UTF-8"?> <svg xmlns="http://www.w3.org/2000/svg" id="Layer_1" data-name="Layer 1" viewBox="0 0 55.68 62.89"> <defs> <style>.cls-1{fill:none;stroke:#3156a1;stroke-linejoin:round;stroke-width:2px;}</style> </defs> <title>divida</title> <polyline class="cls-1" points="39.75 49.43 39.75 61.89 1 61.89 1 1 39.75 1 39.75 10.69"></polyline> <circle class="cls-1" cx="34.21" cy="30.06" r="16.61"></circle> <line class="cls-1" x1="43.9" y1="42.51" x2="54.97" y2="53.58"></line> <line class="cls-1" x1="6.54" y1="10.69" x2="23.14" y2="10.69"></line> <line class="cls-1" x1="6.54" y1="16.22" x2="17.61" y2="16.22"></line> <line class="cls-1" x1="6.54" y1="21.76" x2="13.45" y2="21.76"></line> <line class="cls-1" x1="6.54" y1="27.29" x2="13.45" y2="27.29"></line> <line class="cls-1" x1="6.54" y1="32.83" x2="13.45" y2="32.83"></line> <line class="cls-1" x1="25.91" y1="24.52" x2="41.13" y2="24.52"></line> <line class="cls-1" x1="25.91" y1="30.06" x2="41.13" y2="30.06"></line> <line class="cls-1" x1="25.91" y1="35.59" x2="35.59" y2="35.59"></line> <line class="cls-1" x1="7.92" y1="50.82" x2="7.92" y2="56.35"></line> <line class="cls-1" x1="13.45" y1="45.28" x2="13.45" y2="56.35"></line> <line class="cls-1" x1="18.99" y1="49.43" x2="18.99" y2="56.35"></line> <line class="cls-1" x1="24.52" y1="53.58" x2="24.52" y2="56.35"></line> <line class="cls-1" x1="30.06" y1="50.82" x2="30.06" y2="56.35"></line> </svg> 