<?xml version="1.0" encoding="UTF-8"?> <svg xmlns="http://www.w3.org/2000/svg" id="Layer_1" data-name="Layer 1" viewBox="0 0 62.89 62.89"> <defs> <style>.cls-1,.cls-2{fill:none;stroke:#3156a1;stroke-width:2px;}.cls-1{stroke-linejoin:round;}.cls-2{stroke-miterlimit:10;}</style> </defs> <title>gestao</title> <path class="cls-1" d="M22.19,52.35A3.29,3.29,0,0,1,25,51H44.33c1.54,0,10-8.48,11.07-9.69a73.93,73.93,0,0,0,6.92-11.07c-.8-1.08-3-2-5.54-1.38s-3.89,2.33-5.54,5.54l-6.34,3.29" transform="translate(-0.44 -0.15)"></path> <path class="cls-1" d="M30.5,42.67H41.57c5.54,0,5.54-6.92,0-6.92H34.26c-1.15,0-3.31-2.77-5.14-2.77H22.19c-1.87,0-4.19,1.52-5.54,2.77l-5.54,5.54" transform="translate(-0.44 -0.15)"></path> <rect class="cls-1" x="8.31" y="38.54" width="9.78" height="23.48" transform="translate(-32.12 23.91) rotate(-45)"></rect> <line class="cls-1" x1="7.92" y1="45.28" x2="10.69" y2="48.05"></line> <polyline class="cls-2" points="52.2 30.06 52.2 10.69 42.51 10.69 42.51 35.59"></polyline> <polyline class="cls-2" points="32.83 34.21 32.83 1 42.51 1 42.51 10.69"></polyline> <polyline class="cls-2" points="32.83 20.37 23.14 20.37 23.14 32.83"></polyline> </svg> 