<?xml version="1.0" encoding="UTF-8"?> <svg xmlns="http://www.w3.org/2000/svg" id="Layer_1" data-name="Layer 1" viewBox="0 0 54.58 66.04"> <defs> <style>.cls-1{fill:none;stroke:#3156a1;stroke-linejoin:round;stroke-width:2px;}</style> </defs> <title>imobiliario</title> <polygon class="cls-1" points="23.14 65.04 39.75 65.04 39.75 24.91 14.84 24.91 14.84 65.04 23.14 65.04"></polygon> <line class="cls-1" x1="6.54" y1="51.2" x2="9.3" y2="51.2"></line> <rect class="cls-1" x="17.61" y="17.99" width="19.37" height="6.92"></rect> <rect class="cls-1" x="23.14" y="11.07" width="8.3" height="6.92"></rect> <line class="cls-1" x1="20.37" y1="31.83" x2="34.21" y2="31.83"></line> <line class="cls-1" x1="20.37" y1="40.13" x2="34.21" y2="40.13"></line> <line class="cls-1" x1="20.37" y1="48.43" x2="34.21" y2="48.43"></line> <line class="cls-1" x1="20.37" y1="56.74" x2="34.21" y2="56.74"></line> <line class="cls-1" x1="6.54" y1="34.59" x2="9.3" y2="34.59"></line> <line class="cls-1" x1="6.54" y1="29.06" x2="9.3" y2="29.06"></line> <line class="cls-1" x1="6.54" y1="40.13" x2="9.3" y2="40.13"></line> <line class="cls-1" x1="6.54" y1="45.67" x2="9.3" y2="45.67"></line> <line class="cls-1" x1="6.54" y1="56.74" x2="9.3" y2="56.74"></line> <polyline class="cls-1" points="39.75 65.04 53.58 65.04 53.58 27.68 39.75 27.68"></polyline> <line class="cls-1" x1="46.67" y1="40.13" x2="46.67" y2="44.28"></line> <line class="cls-1" x1="46.67" y1="33.21" x2="46.67" y2="37.36"></line> <line class="cls-1" x1="46.67" y1="47.05" x2="46.67" y2="51.2"></line> <line class="cls-1" x1="46.67" y1="55.35" x2="46.67" y2="59.5"></line> <line class="cls-1" x1="27.29" y1="11.07" x2="27.29"></line> <polyline class="cls-1" points="36.98 20.76 50.82 20.76 50.82 27.68"></polyline> <polyline class="cls-1" points="17.61 15.22 17.61 5.54 16.22 4.15 1 19.37 1 65.04 14.84 65.04"></polyline> </svg> 