<?xml version="1.0" encoding="UTF-8"?> <svg xmlns="http://www.w3.org/2000/svg" id="Layer_1" data-name="Layer 1" viewBox="0 0 64.94 60.12"> <defs> <style>.cls-1{fill:none;stroke:#3156a1;stroke-miterlimit:10;stroke-width:2px;}</style> </defs> <title>ma</title> <path class="cls-1" d="M27.2,36.06v1.38A2.77,2.77,0,0,0,30,40.21h5.54a2.77,2.77,0,0,0,2.77-2.77V33.9a2.77,2.77,0,0,0-1.89-2.63L29.1,29.77a2.77,2.77,0,0,1-1.89-2.63V23.6A2.77,2.77,0,0,1,30,20.84h5.54a2.77,2.77,0,0,1,2.77,2.77v2.77" transform="translate(-0.29 -0.46)"></path> <line class="cls-1" x1="32.45" y1="20.37" x2="32.45" y2="14.84"></line> <line class="cls-1" x1="32.45" y1="39.75" x2="32.45" y2="45.28"></line> <path class="cls-1" d="M20.28,48.74a18.06,18.06,0,0,1-5-22.58l3.65,3L20.63,9.59,2.34,15.76l3.83,3.09A29,29,0,0,0,32.74,59.58" transform="translate(-0.29 -0.46)"></path> <path class="cls-1" d="M45.24,12.31a18.06,18.06,0,0,1,5,22.58l-3.65-3L44.89,51.45l18.29-6.16L59.36,42.2A29,29,0,0,0,32.78,1.46" transform="translate(-0.29 -0.46)"></path> </svg> 