<svg width="635" height="460" viewBox="0 0 635 460" fill="none" xmlns="http://www.w3.org/2000/svg">
<g clip-path="url(#clip0)">
<path d="M172.31 205.097H155.662V203.698H170.771V42.5304H383.983V44.0693H172.31V205.097Z" fill="#4AAFFF"/>
<path d="M599.012 70.371V263.856C599.012 265.115 597.893 266.235 596.634 266.235H183.642C182.383 266.235 181.263 265.115 181.263 263.856V70.371C181.263 69.1119 182.383 67.9927 183.642 67.9927H596.634C598.033 67.9927 599.012 69.1119 599.012 70.371Z" fill="#E0E0E0"/>
<path d="M594.116 70.371H186.161C184.901 70.371 183.782 71.4902 183.782 72.7493V261.478C183.782 262.737 184.901 263.856 186.161 263.856H594.256C595.515 263.856 596.635 262.737 596.635 261.478V72.7493C596.495 71.3503 595.515 70.371 594.116 70.371Z" fill="white"/>
<path d="M175.808 226.083C175.808 226.083 175.668 223.984 175.948 223.005C176.367 221.326 175.808 218.528 177.906 217.129C180.005 215.73 186.3 221.466 186.86 223.005C187.42 224.544 185.041 227.342 180.145 229.58C175.108 231.819 175.808 226.083 175.808 226.083Z" fill="#EEA886"/>
<path d="M177.207 217.688C177.207 217.688 179.305 214.471 182.103 211.253C184.481 208.455 187.979 205.237 188.679 205.797C189.798 206.776 186.72 209.014 184.481 211.952C182.383 214.75 183.362 214.471 183.362 214.471C183.362 214.471 183.082 214.471 185.881 211.952C188.958 209.154 192.316 206.356 192.876 206.916C193.575 207.475 193.715 207.615 192.736 208.875C193.435 208.315 193.715 208.455 193.995 208.735C195.394 210.134 191.477 214.89 190.078 216.709C191.197 215.31 192.316 214.331 192.596 215.73C192.876 217.269 187.28 223.704 185.461 226.222C183.222 229.02 177.207 217.688 177.207 217.688Z" fill="#EEA886"/>
<path d="M104.317 445.03C104.317 445.03 110.193 448.528 112.991 449.787C115.649 451.046 126.142 451.465 127.121 452.445C128.101 453.424 127.821 456.502 126.002 456.922C124.323 457.201 111.592 458.321 107.395 457.341C103.198 456.362 95.2236 458.041 93.5448 457.481C91.726 456.922 92.9851 447.408 93.5448 445.31C94.1044 443.211 104.317 445.03 104.317 445.03Z" fill="#181929"/>
<path d="M104.737 441.113L104.178 445.03C104.178 445.03 96.2033 446.569 93.825 445.31L94.3846 441.253L104.737 441.113Z" fill="#22243B"/>
<path d="M136.495 309.185C136.355 311.843 135.935 317.719 135.376 323.734C135.236 325.133 135.096 326.393 134.956 327.792C134.117 336.046 133.417 343.601 133.417 343.601C132.438 350.176 130.339 361.508 128.101 370.042C127.401 372.56 126.702 374.799 126.002 376.618C125.303 378.436 124.603 379.835 124.044 380.675C119.147 386.97 107.815 442.512 107.815 442.512L92.4258 442.372C92.4258 442.372 95.7834 404.738 99.1411 395.085C102.918 384.452 109.494 370.042 107.815 359.829C106.836 353.394 105.437 332.828 105.437 332.828C105.437 332.828 104.178 309.744 110.193 292.816C111.872 288.619 136.495 309.185 136.495 309.185Z" fill="#292C47"/>
<path d="M147.408 446.429C147.408 446.429 153.283 450.066 155.942 451.326C158.6 452.725 169.092 453.144 170.072 454.124C171.051 455.103 170.631 458.181 168.953 458.461C167.274 458.74 154.543 459.72 150.345 458.74C146.148 457.761 138.174 459.3 136.495 458.6C134.816 458.041 135.936 448.528 136.635 446.429C137.335 444.47 147.408 446.429 147.408 446.429Z" fill="#181929"/>
<path d="M147.967 442.652L147.407 446.569C147.407 446.569 139.433 447.968 137.054 446.709L137.754 442.652H147.967Z" fill="#22243B"/>
<path d="M129.64 387.39C129.22 375.079 128.101 366.964 125.023 359.829C122.365 353.813 120.127 335.067 120.127 335.067C120.127 335.067 112.852 313.102 114.391 295.194C114.81 290.717 142.651 301.91 142.651 301.91C143.21 304.568 145.169 312.682 145.729 318.838C149.506 353.534 148.107 376.198 148.107 376.198C146.009 383.893 151.465 444.191 151.465 444.191H135.796C135.796 444.191 131.738 422.646 131.319 409.355C131.039 409.495 129.5 389.489 129.64 387.39Z" fill="#292C47"/>
<path d="M129.22 228.181C129.22 228.181 136.495 240.213 138.594 246.788C140.692 253.503 139.013 272.95 139.433 276.867C140.552 289.039 142.371 302.329 142.371 302.329L117.888 317.998C117.888 317.998 113.551 307.786 109.634 294.915C105.856 282.183 105.437 270.572 105.577 262.877C105.716 238.814 118.727 225.103 118.727 225.103L129.22 228.181Z" fill="#CFBEB6"/>
<path d="M138.314 196.143C138.314 196.143 143.351 201.46 141.952 202.999C140.832 204.118 145.449 209.574 146.009 210.413C146.708 211.253 143.91 212.792 143.49 213.631C143.071 214.471 143.351 222.865 140.972 223.704C138.594 224.544 126.982 223.704 123.205 221.326C119.427 219.087 113.411 205.937 113.831 199.641C114.251 193.345 129.5 186.77 138.314 196.143Z" fill="#EEA886"/>
<path d="M133.557 221.746C133.557 221.746 133.417 222.445 133.417 223.564C133.277 224.544 133.137 226.083 133.137 227.062C132.997 228.881 132.718 232.938 133.137 234.896C133.697 237.974 120.266 224.823 120.266 224.823C120.266 224.823 121.386 214.611 120.826 203.139C120.126 191.666 133.557 221.746 133.557 221.746Z" fill="#EEA886"/>
<path d="M139.293 197.263C139.293 197.263 141.672 191.666 134.397 187.749C125.723 183.132 116.629 194.604 115.37 195.304C114.111 196.003 108.655 202.159 113.971 210.413C120.826 220.766 120.406 220.486 120.406 220.486C120.406 220.486 121.106 212.792 121.106 211.393C120.966 208.735 128.101 208.315 128.101 208.315C128.101 208.315 125.163 204.398 128.381 202.719C131.739 201.04 135.516 196.843 139.293 197.263Z" fill="#3A3F47"/>
<path d="M124.463 207.336C123.904 206.636 122.085 203.418 119.567 206.216C117.189 209.014 123.624 214.331 124.184 214.191C124.743 214.191 128.8 213.491 124.463 207.336Z" fill="#EEA886"/>
<path d="M143.77 307.506C143.77 307.506 142.511 301.77 142.371 300.93L106.556 306.946L106.975 311.563C106.835 311.563 132.578 309.884 143.77 307.506Z" fill="#23263D"/>
<path d="M103.338 282.323C103.338 282.323 108.794 306.107 100.26 333.807C99.141 337.165 124.044 333.248 124.044 333.248L103.338 282.323Z" fill="#323657"/>
<path d="M134.956 331.429C134.956 331.429 117.328 335.346 112.292 333.528C112.292 333.528 105.017 307.226 102.499 280.505C102.359 278.406 102.079 276.447 101.939 274.349C100.54 252.664 105.996 230.559 118.588 225.103C119.007 225.383 136.635 240.912 136.355 255.322C136.355 256.301 136.355 257.281 136.355 258.26C136.355 260.079 136.355 261.758 136.355 263.576C136.495 269.033 136.775 274.489 137.335 279.665C137.335 280.225 137.474 280.784 137.474 281.344C137.614 282.183 137.614 283.163 137.754 284.002C137.894 285.121 138.034 286.38 138.174 287.5C141.112 311.423 134.956 331.429 134.956 331.429Z" fill="#323657"/>
<path d="M134.117 238.674C134.117 238.674 137.474 251.825 138.733 268.473C139.853 282.323 141.252 292.116 141.252 292.116L143.35 298.972L144.19 292.396C144.19 292.396 143.35 274.489 142.371 267.214C141.252 259.799 140.832 250.565 134.956 238.394L134.117 238.674Z" fill="#D44040"/>
<path d="M133.837 238.674C133.837 238.674 134.257 239.093 134.816 239.093C135.376 239.233 136.215 238.254 133.277 234.477L133.837 238.674Z" fill="#D44040"/>
<path d="M120.266 223.284C120.266 223.284 128.521 230.979 133.417 232.798L134.397 240.213L118.728 225.243L120.266 223.284Z" fill="#EDDAD3"/>
<path d="M125.862 253.224C122.645 252.104 109.074 245.529 112.712 237.834C116.349 230.14 125.583 234.197 132.578 237.415C139.853 240.632 157.061 250.705 158.46 249.726C159.859 248.747 165.735 240.213 166.854 238.394C167.973 236.435 174.409 224.404 174.968 223.424C175.528 222.585 185.041 230.419 185.041 230.419C185.041 230.419 168.113 260.499 163.496 265.255C158.879 270.152 125.862 253.224 125.862 253.224Z" fill="#323657"/>
<path d="M128.101 370.042C127.401 372.56 126.702 374.799 126.002 376.618L120.686 344.58C122.085 347.658 128.101 370.042 128.101 370.042Z" fill="#181929"/>
<path d="M136.495 263.576L120.966 250.845C125.023 253.084 135.236 257.7 136.495 258.26C136.355 260.079 136.495 261.898 136.495 263.576Z" fill="#1C1E30"/>
<path d="M133.278 223.704C132.998 226.082 132.998 226.222 132.998 226.222C127.821 225.943 123.904 221.746 123.624 221.466C125.863 223.284 133.278 223.704 133.278 223.704Z" fill="#A77860"/>
<path d="M397.833 124.373H397.133V243.85H397.833V124.373Z" fill="#E0E0E0"/>
<path d="M369.713 124.373H369.013V243.85H369.713V124.373Z" fill="#E0E0E0"/>
<path d="M341.732 124.373H341.032V243.85H341.732V124.373Z" fill="#E0E0E0"/>
<path d="M313.612 124.373H312.913V243.85H313.612V124.373Z" fill="#E0E0E0"/>
<path d="M285.492 124.373H284.792V243.85H285.492V124.373Z" fill="#E0E0E0"/>
<path d="M257.511 124.373H256.812V243.85H257.511V124.373Z" fill="#E0E0E0"/>
<path d="M229.391 124.373H228.691V243.85H229.391V124.373Z" fill="#E0E0E0"/>
<path d="M201.41 124.373H200.71V243.85H201.41V124.373Z" fill="#E0E0E0"/>
<path d="M209.244 217.968H201.27V215.87H208.405L220.436 203.698L229.25 212.512L250.376 191.527L256.811 197.962L278.076 176.697L290.947 189.428H305.497L328.021 166.904H347.328L361.738 152.634H379.226L396.714 135.146L398.253 136.685L380.205 154.732H362.577L348.307 169.142H328.861L306.337 191.527H289.968L278.076 179.635L256.811 201.04L250.376 194.604L229.25 215.59L220.436 206.776L209.244 217.968Z" fill="#FFAA8F"/>
<path d="M201.97 244.13L200.571 242.451L223.794 222.585H238.064L270.242 195.164L290.248 212.372H305.078L312.632 218.668L335.856 198.941H347.748L396.714 157.111L398.113 158.789L348.587 201.04H336.696L312.632 221.606L304.378 214.471H289.549L270.242 198.102L238.764 224.823H224.634L201.97 244.13Z" fill="#42ABFF"/>
<path d="M382.723 137.804H360.479C359.779 137.804 359.22 137.244 359.22 136.545V134.866C359.22 134.167 359.779 133.607 360.479 133.607H382.723C383.423 133.607 383.982 134.167 383.982 134.866V136.545C383.982 137.244 383.423 137.804 382.723 137.804Z" fill="#78C2FF"/>
<path d="M350.126 149.416H327.882C327.182 149.416 326.623 148.856 326.623 148.157V146.478C326.623 145.778 327.182 145.219 327.882 145.219H350.126C350.826 145.219 351.385 145.778 351.385 146.478V148.157C351.525 148.856 350.826 149.416 350.126 149.416Z" fill="#78C2FF"/>
<path d="M310.534 142.141H288.289C287.59 142.141 287.03 141.581 287.03 140.882V139.203C287.03 138.504 287.59 137.944 288.289 137.944H310.534C311.233 137.944 311.793 138.504 311.793 139.203V140.882C311.793 141.581 311.233 142.141 310.534 142.141Z" fill="#78C2FF"/>
<path d="M276.537 162.287H254.293C253.593 162.287 253.034 161.727 253.034 161.028V159.349C253.034 158.649 253.593 158.09 254.293 158.09H276.537C277.237 158.09 277.796 158.649 277.796 159.349V161.028C277.796 161.727 277.237 162.287 276.537 162.287Z" fill="#78C2FF"/>
<path d="M233.867 178.656H211.623C210.923 178.656 210.364 178.096 210.364 177.396V175.718C210.364 175.018 210.923 174.458 211.623 174.458H233.867C234.567 174.458 235.126 175.018 235.126 175.718V177.396C235.126 177.956 234.567 178.656 233.867 178.656Z" fill="#78C2FF"/>
<path d="M414.481 212.232H406.787V243.291H414.481V212.232Z" fill="#E0E0E0"/>
<path d="M428.053 202.159H420.358V243.151H428.053V202.159Z" fill="#E0E0E0"/>
<path d="M441.482 191.247H433.788V243.151H441.482V191.247Z" fill="#E0E0E0"/>
<path d="M455.613 196.983H447.918V243.29H455.613V196.983Z" fill="#E0E0E0"/>
<path d="M470.302 188.169H462.607V243.29H470.302V188.169Z" fill="#E0E0E0"/>
<path d="M484.573 197.822H476.878V243.151H484.573V197.822Z" fill="#E0E0E0"/>
<path d="M498.143 205.237H490.448V243.291H498.143V205.237Z" fill="#E0E0E0"/>
<path d="M511.574 200.62H503.879V243.29H511.574V200.62Z" fill="#E0E0E0"/>
<path d="M525.844 177.816H518.149V243.151H525.844V177.816Z" fill="#E0E0E0"/>
<path d="M540.393 188.169H532.699V243.29H540.393V188.169Z" fill="#E0E0E0"/>
<path d="M554.244 196.983H546.549V243.29H554.244V196.983Z" fill="#E0E0E0"/>
<path d="M568.514 183.692H560.82V243.29H568.514V183.692Z" fill="#E0E0E0"/>
<path d="M583.064 167.184H575.369V243.29H583.064V167.184Z" fill="#E0E0E0"/>
<path d="M414.481 223.564H406.787V243.291H414.481V223.564Z" fill="#78C2FF"/>
<path d="M428.053 217.269H420.358V243.29H428.053V217.269Z" fill="#78C2FF"/>
<path d="M441.482 210.273H433.788V243.29H441.482V210.273Z" fill="#78C2FF"/>
<path d="M455.613 213.911H447.918V243.29H455.613V213.911Z" fill="#78C2FF"/>
<path d="M470.302 208.315H462.607V243.29H470.302V208.315Z" fill="#78C2FF"/>
<path d="M484.573 214.471H476.878V243.29H484.573V214.471Z" fill="#78C2FF"/>
<path d="M498.143 219.087H490.448V243.291H498.143V219.087Z" fill="#78C2FF"/>
<path d="M511.574 216.289H503.879V243.29H511.574V216.289Z" fill="#78C2FF"/>
<path d="M525.844 201.739H518.149V243.151H525.844V201.739Z" fill="#78C2FF"/>
<path d="M540.393 208.315H532.699V243.29H540.393V208.315Z" fill="#78C2FF"/>
<path d="M554.244 213.911H546.549V243.29H554.244V213.911Z" fill="#78C2FF"/>
<path d="M568.514 205.517H560.82V243.291H568.514V205.517Z" fill="#78C2FF"/>
<path d="M583.064 195.024H575.369V243.29H583.064V195.024Z" fill="#78C2FF"/>
<path d="M612.304 243.57C612.304 243.57 614.263 270.432 608.946 273.649C605.589 275.608 592.578 282.463 592.857 283.722C593.277 284.981 600.272 295.054 600.272 295.054C600.272 295.054 625.455 278.406 626.294 273.23C627.134 268.053 625.035 233.777 621.537 232.238C618.879 231.119 617.62 232.098 614.263 234.477C609.926 237.974 612.304 243.57 612.304 243.57Z" fill="#90919E"/>
<path d="M615.241 439.574C615.241 439.574 616.081 445.03 616.081 445.869C616.221 446.709 624.755 445.45 624.755 445.45L625.454 439.014C625.594 438.874 616.36 438.734 615.241 439.574Z" fill="#424773"/>
<path d="M616.081 445.17C616.081 445.17 613.283 448.388 610.764 449.927C608.106 451.326 603.909 451.885 602.37 453.424C601.251 454.543 598.313 459.16 609.225 459.02C620.278 458.88 625.454 459.72 626.713 457.901C627.833 456.082 625.034 444.89 625.034 444.89C625.034 444.89 622.376 445.729 616.081 445.17Z" fill="#292C47"/>
<path d="M572.151 439.574C572.151 439.574 572.991 445.03 572.991 445.869C573.131 446.709 581.665 445.45 581.665 445.45L582.364 439.014C582.364 438.874 573.131 438.734 572.151 439.574Z" fill="#424773"/>
<path d="M572.851 445.17C572.851 445.17 570.053 448.388 567.535 449.927C564.877 451.326 555.223 452.585 553.545 453.984C552.425 455.103 550.607 459.3 565.996 459.02C577.048 458.74 582.225 459.72 583.484 457.901C584.603 456.082 581.805 444.89 581.805 444.89C581.805 444.89 579.287 445.729 572.851 445.17Z" fill="#292C47"/>
<path d="M612.163 299.531C612.163 299.531 620.278 312.402 619.718 324.014C619.159 335.626 620.418 348.077 621.677 360.249C623.076 373.82 626.713 402.08 626.993 409.355C627.133 416.63 626.713 443.911 626.713 443.911L612.583 443.771C612.583 443.771 607.547 388.649 605.168 382.913C602.79 377.177 592.857 335.766 592.437 331.149C592.017 326.672 612.163 299.531 612.163 299.531Z" fill="#313454"/>
<path d="M569.494 301.35C569.494 301.35 566.276 332.968 565.436 340.103C564.597 347.238 565.157 378.157 564.737 382.633C564.317 387.11 567.395 434.257 568.234 443.211L583.764 443.071C583.764 443.071 584.883 404.878 584.883 386.411C584.883 367.944 589.64 346.259 595.096 334.087C600.552 321.916 613.003 321.636 616.361 298.832C616.221 298.972 574.11 294.075 569.494 301.35Z" fill="#313454"/>
<path d="M603.63 190.967C603.63 190.967 593.976 184.531 587.121 191.387C580.266 198.242 577.048 214.611 581.805 217.828C586.701 221.046 594.956 221.885 598.873 217.548C602.79 213.211 606.987 206.496 607.967 201.46C609.226 196.563 606.148 192.926 603.63 190.967Z" fill="#EEA886"/>
<path d="M585.163 218.947C585.163 218.947 585.303 225.803 584.603 227.202C583.904 228.601 598.733 228.741 598.733 228.741C598.733 228.741 599.992 220.906 602.231 214.191C604.469 207.475 585.163 218.947 585.163 218.947Z" fill="#EEA886"/>
<path d="M601.811 214.051C601.811 214.051 600.412 215.45 596.495 213.911C592.578 212.372 588.94 205.657 587.261 204.677C585.722 203.698 585.862 202.719 585.862 202.719L584.463 203.978L582.645 203.698C582.645 203.698 585.443 199.221 583.484 196.703C581.525 194.185 589.78 181.593 601.811 189.288C601.811 189.288 611.185 194.464 609.506 200.061C607.687 205.517 604.749 211.672 601.811 214.051Z" fill="#754836"/>
<path d="M583.764 226.922C583.764 226.922 583.764 224.124 585.023 223.844C586.282 223.564 598.873 222.305 600.412 223.005V226.222C600.412 226.222 597.474 228.181 583.764 226.922Z" fill="#E2D2CA"/>
<path d="M586.701 200.62C587.12 199.781 590.198 197.542 590.478 200.76C590.758 203.978 587.4 207.336 586.281 206.636C585.022 205.937 585.582 202.859 586.701 200.62Z" fill="#EEA886"/>
<path d="M606.427 192.646C606.427 192.646 620.278 196.283 602.37 213.491L606.427 192.646Z" fill="#754836"/>
<path d="M440.503 165.085H407.766C407.206 165.085 406.787 164.665 406.787 164.106V159.069C406.787 158.51 407.206 158.09 407.766 158.09H440.503C441.063 158.09 441.482 158.51 441.482 159.069V164.106C441.482 164.665 441.063 165.085 440.503 165.085Z" fill="#FF8761"/>
<path d="M463.167 165.085H450.156C449.596 165.085 449.177 164.665 449.177 164.106V159.069C449.177 158.51 449.596 158.09 450.156 158.09H463.167C463.727 158.09 464.146 158.51 464.146 159.069V164.106C464.146 164.665 463.727 165.085 463.167 165.085Z" fill="#E0E0E0"/>
<path d="M441.622 107.165H410.564C408.465 107.165 406.787 108.844 406.787 110.943V139.903C406.787 142.001 408.465 143.68 410.564 143.68H441.622C443.721 143.68 445.4 142.001 445.4 139.903V110.943C445.4 108.844 443.721 107.165 441.622 107.165Z" fill="#E0E0E0"/>
<path d="M548.928 113.881H450.856V118.218H548.928V113.881Z" fill="#E0E0E0"/>
<path d="M571.032 123.394H450.856V127.731H571.032V123.394Z" fill="#E0E0E0"/>
<path d="M510.035 132.488H450.856V136.825H510.035V132.488Z" fill="#E0E0E0"/>
<path d="M399.092 113.881H200.99V115.979H399.092V113.881Z" fill="#33A4FF"/>
<path d="M399.092 106.046H200.99V108.145H399.092V106.046Z" fill="#FF8761"/>
<path d="M627.693 219.787H616.221V218.388H626.294V52.1837H595.515V35.955H371.531V34.4161H596.914V50.6448H627.693V219.787Z" fill="#4AAFFF"/>
<path d="M634.548 227.482H626.574V226.082H633.009V188.169H634.548V227.482Z" fill="#4AAFFF"/>
<g opacity="0.79">
<path opacity="0.79" d="M583.064 20.7056H201.27V98.0717H583.064V20.7056Z" fill="white"/>
</g>
<path d="M265.625 93.4549L283.113 75.8272L296.404 89.1179L316.969 68.5523H326.483L340.613 74.5681L357.541 57.7798L380.765 81.0036L395.175 66.4537H399.092L406.787 58.7591L427.492 79.4647L437.146 69.8114L447.079 79.6046L464.147 62.6763L477.018 75.5474H486.531L506.677 55.5413L527.662 76.5267L563.338 55.5413V93.4549H265.625Z" fill="#78C2FF"/>
<path d="M315.01 93.4549L329.28 79.0449L337.814 87.4391L354.882 70.371L371.111 86.5997H383.982L395.454 75.1277H410.564L427.072 91.4963L437.705 80.7238L443.721 86.7396L463.167 67.1532L477.717 81.7031H490.448L504.718 67.2931L511.014 73.7286L516.19 68.5522L529.621 81.843H543.331L563.477 61.697V93.4549H315.01Z" fill="#4DAFFF"/>
<path d="M268.283 51.3442C263.946 39.1727 252.335 31.618 240.023 32.0377C237.085 32.1776 234.007 32.7372 231.069 33.7165C222.116 36.9343 215.68 44.0693 213.022 52.4635C211.203 58.3394 211.203 64.7749 213.442 70.9306C213.721 71.4902 213.861 72.1897 214.141 72.7493C215.26 75.4075 216.799 77.9257 218.618 80.0243C226.173 88.978 238.904 92.7554 250.656 88.5583C265.765 83.1021 273.6 66.4537 268.283 51.3442ZM248.138 81.7031C239.324 84.7809 229.81 81.9829 224.214 75.2676C222.815 73.7286 221.696 71.9099 220.857 69.8114C220.717 69.3917 220.437 68.972 220.297 68.4123C218.618 63.7956 218.618 58.899 220.017 54.562C221.976 48.2664 226.732 42.9501 233.448 40.5717C235.686 39.7323 237.925 39.3126 240.163 39.3126C249.397 39.0328 258.071 44.6289 261.288 53.7226C265.485 65.0547 259.47 77.6459 248.138 81.7031Z" fill="#4AAFFF"/>
<path d="M220.017 54.562L213.022 52.3235C215.68 43.9294 222.116 36.7944 231.07 33.5766C234.008 32.4574 237.085 32.0377 240.023 31.8978L240.303 39.1727C238.065 39.1727 235.826 39.5924 233.588 40.4318C226.733 42.9501 221.976 48.2664 220.017 54.562Z" fill="#1A598C"/>
<path d="M220.857 69.8114L214.141 72.7494C213.861 72.1898 213.582 71.4902 213.442 70.9306C211.203 64.7749 211.203 58.3394 213.022 52.4635L220.017 54.7019C218.618 59.0389 218.618 63.9355 220.297 68.5523C220.437 68.972 220.577 69.3917 220.857 69.8114Z" fill="#2273B5"/>
<path d="M218.618 79.8843C216.799 77.7858 215.26 75.2676 214.141 72.6094L220.856 69.6714C221.696 71.6301 222.815 73.4488 224.214 75.1276L218.618 79.8843Z" fill="#3788CC"/>
<path d="M482.054 265.815L496.184 266.234C495.065 265.535 493.107 264.136 493.526 263.576C494.226 262.737 498.143 264.696 499.682 264.975C501.221 265.115 503.599 265.115 505.558 265.815L509.895 267.913L505.698 271.551C505.698 271.551 498.283 272.39 496.184 272.39C492.687 272.53 482.054 267.913 481.914 267.354C481.495 266.095 482.054 265.815 482.054 265.815Z" fill="#EEA886"/>
<path d="M565.296 230.839C574.25 229.3 583.623 227.062 583.623 227.062L600.272 226.362C600.272 226.362 615.521 229.72 621.677 232.518C622.237 232.798 622.237 246.228 623.776 249.726L618.739 260.219C618.739 260.219 615.801 281.064 615.241 290.438C614.962 294.635 621.257 330.45 621.257 330.45C621.257 330.45 614.542 332.408 603.21 333.667C591.878 334.927 563.338 333.248 563.198 331.849C563.058 330.45 568.654 281.764 568.934 279.245C569.353 275.328 567.815 257.421 567.815 257.421C565.716 260.359 553.265 271.131 547.249 274.489C542.912 276.867 532.419 275.468 529.201 275.188C522.486 274.489 503.879 273.23 503.459 272.53C503.18 272.11 504.579 265.395 505.278 265.115C505.978 264.835 530.041 263.716 536.057 263.996C538.435 264.136 546.409 255.182 546.409 255.182C546.409 255.182 560.4 233.078 565.296 230.839Z" fill="#90919E"/>
</g>
<defs>
<clipPath id="clip0">
<rect x="-43" width="677.548" height="459.3" fill="white"/>
</clipPath>
</defs>
</svg>
